<svg width="200" height="80" viewBox="0 0 200 80" fill="none" xmlns="http://www.w3.org/2000/svg">
  <rect width="200" height="80" fill="#F5F5F5"/>
  <path d="M42.48 31C37.744 31 34 34.744 34 39.48V49H39.68V39.48C39.68 37.824 40.824 36.68 42.48 36.68C44.136 36.68 45.28 37.824 45.28 39.48V49H50.96V39.48C50.96 34.744 47.216 31 42.48 31Z" fill="#E50914"/>
  <path d="M66.408 31.224C61.512 31.224 57.536 35.2 57.536 40.096C57.536 44.992 61.512 48.968 66.408 48.968C71.304 48.968 75.28 44.992 75.28 40.096C75.28 35.2 71.304 31.224 66.408 31.224ZM66.408 43.288C64.752 43.288 63.216 41.752 63.216 40.096C63.216 38.44 64.752 36.904 66.408 36.904C68.064 36.904 69.6 38.44 69.6 40.096C69.6 41.752 68.064 43.288 66.408 43.288Z" fill="#E50914"/>
  <path d="M97.12 31.224C94.976 31.224 93.064 32.24 91.8 33.808C90.536 32.24 88.624 31.224 86.48 31.224C81.584 31.224 77.608 35.2 77.608 40.096C77.608 44.992 81.584 48.968 86.48 48.968C88.624 48.968 90.536 47.952 91.8 46.384C93.064 47.952 94.976 48.968 97.12 48.968C102.016 48.968 105.992 44.992 105.992 40.096C105.992 35.2 102.016 31.224 97.12 31.224ZM86.48 43.288C84.824 43.288 83.288 41.752 83.288 40.096C83.288 38.44 84.824 36.904 86.48 36.904C88.136 36.904 89.672 38.44 89.672 40.096C89.672 41.752 88.136 43.288 86.48 43.288ZM97.12 43.288C95.464 43.288 93.928 41.752 93.928 40.096C93.928 38.44 95.464 36.904 97.12 36.904C98.776 36.904 100.312 38.44 100.312 40.096C100.312 41.752 98.776 43.288 97.12 43.288Z" fill="#E50914"/>
  <text x="115" y="45" font-family="Arial" font-size="24" font-weight="bold" fill="#E50914">USO</text>
</svg> 